#!OML:ASF X:\für Bonn\!DataBase\2005_08_10_Bjorn_Final\c3d\bjorn.ASF
:FULLY-SPECIFIED
:DEGREES
401
root -0.467133 1.80782 22.1479 -441.762 -174.557 370.595
lowerback 69.3083 -2.45778 23.7175
upperback 23.0831 -5.55253 3.08156
thorax 7.10542 -9.15642 -5.03596
lowerneck 8.52293 11.5832 5.5719
upperneck 9.25819 15.5165 -6.85215
head 2.65597 7.58947 -3.13942
rclavicle 4.77083e-015 -7.95139e-014
rhumerus -188.814 -178.825 119.483
rradius 49.7645
rwrist 5.02503
rhand -29.6712 22.7541
rfingers 7.12502
rthumb -2.99995 -7.2045
lclavicle 4.77083e-015 -7.95139e-014
lhumerus -367.398 -48.9586 -316.412
lradius 58.7781
lwrist -4.97269
lhand -32.788 -12.1116
lfingers 7.12502
lthumb -6.00955 17.7832
rfemur -60.4588 -27.6819 -2.26032
rtibia 118.701
rfoot 35.6101 18.9309
rtoes -7.64749
lfemur -65.2583 5.9809 -12.7507
ltibia 115.662
lfoot 27.7387 8.46273
ltoes 13.9527
402
root -0.463505 1.79337 22.1551 -441.914 -174.462 370.592
lowerback 69.0467 -2.33382 23.4452
upperback 23.0691 -5.49557 2.98713
thorax 7.01079 -9.08347 -5.05957
lowerneck 8.528 11.5469 5.54777
upperneck 9.39983 15.4414 -6.57213
head 2.66767 7.54595 -3.04102
rclavicle -3.33958e-014 3.81667e-014
rhumerus -187.29 -178.987 119.422
rradius 48.6863
rwrist 5.39849
rhand -29.6577 22.6463
rfingers 7.12502
rthumb -2.98687 -7.31251
lclavicle -3.33958e-014 3.81667e-014
lhumerus -365.316 -47.7502 -317.294
lradius 58.0098
lwrist -4.76224
lhand -32.8214 -12.2536
lfingers 7.12502
lthumb -6.04174 17.6402
rfemur -60.3517 -27.5061 -2.38688
rtibia 118.653
rfoot 35.6875 18.8121
rtoes -7.54666
lfemur -65.1262 5.79586 -12.8542
ltibia 115.581
lfoot 27.8207 8.6237
ltoes 14.0917
403
root -0.459765 1.77839 22.1621 -442.089 -174.387 370.596
lowerback 68.7546 -2.19832 23.2006
upperback 23.101 -5.44548 2.90306
thorax 6.97653 -9.01859 -5.09331
lowerneck 8.40939 11.5108 5.55988
upperneck 9.5814 15.372 -6.31541
head 2.72076 7.50522 -2.94724
rclavicle -7.03698e-014 1.90833e-014
rhumerus -185.735 -179.142 119.351
rradius 47.5875
rwrist 5.8675
rhand -29.5525 22.4822
rfingers 7.12502
rthumb -2.88532 -7.47805
lclavicle -7.03698e-014 1.90833e-014
lhumerus -363.329 -46.3519 -317.971
lradius 57.159
lwrist -4.74292
lhand -32.7332 -12.5335
lfingers 7.12502
lthumb -5.95659 17.3627
rfemur -60.2252 -27.3071 -2.49549
rtibia 118.604
rfoot 35.7579 18.687
rtoes -7.37361
lfemur -64.9791 5.6326 -12.9389
ltibia 115.512
lfoot 27.9053 8.69395
ltoes 13.9405
404
root -0.456736 1.76348 22.1687 -442.244 -174.311 370.608
lowerback 68.4363 -2.07608 22.9549
upperback 23.123 -5.39775 2.80524
thorax 6.92778 -8.94592 -5.1387
lowerneck 8.27927 11.4734 5.52989
upperneck 9.78238 15.2946 -6.04356
head 2.77682 7.45842 -2.84094
rclavicle 5.40694e-014 -1.51076e-014
rhumerus -184.225 -179.255 119.254
rradius 46.481
rwrist 6.39188
rhand -29.3856 22.2867
rfingers 7.12502
rthumb -2.7241 -7.67567
lclavicle 5.40694e-014 -1.51076e-014
lhumerus -361.547 -44.867 -318.382
lradius 56.2827
lwrist -4.89433
lhand -32.6364 -12.9332
lfingers 7.12502
lthumb -5.86322 16.9657
rfemur -60.1166 -27.1408 -2.59449
rtibia 118.56
rfoot 35.8046 18.6178
rtoes -7.41366
lfemur -64.8566 5.4626 -13.0335
ltibia 115.441
lfoot 28.0037 8.79496
ltoes 13.9496
405
root -0.453519 1.74864 22.1754 -442.415 -174.241 370.6
lowerback 68.1335 -1.92753 22.6992
upperback 23.1434 -5.32387 2.7198
thorax 6.8807 -8.86602 -5.17409
lowerneck 8.17545 11.4161 5.58364
upperneck 9.99433 15.1988 -5.8404
head 2.84587 7.40454 -2.77326
rclavicle 1.19271e-015 4.77083e-015
rhumerus -182.761 -179.384 119.195
rradius 45.3941
rwrist 6.91509
rhand -29.1062 22.0521
rfingers 7.12502
rthumb -2.45423 -7.91353
lclavicle 1.19271e-015 4.77083e-015
lhumerus -359.919 -43.3063 -318.544
lradius 55.3995
lwrist -5.20481
lhand -32.4979 -13.3064
lfingers 7.12502
lthumb -5.72948 16.5962
rfemur -59.9981 -26.9428 -2.69638
rtibia 118.5
rfoot 35.8873 18.5585
rtoes -7.38516
lfemur -64.7068 5.31602 -13.1247
ltibia 115.369
lfoot 28.0953 8.84087
ltoes 13.806
